<svg xmlns="http://www.w3.org/2000/svg" width="600" height="400" viewBox="0 0 600 400"><rect width="100%" height="100%"/><path fill="#ffffff" d="M151.295 226.285h47.39v18.2h-69.45v-118.57h22.06zm97.17-67.24q9.35 0 17.01 3.03 7.67 3.03 13.12 8.61 5.46 5.58 8.41 13.61 2.95 8.04 2.95 17.96 0 10-2.95 18.04t-8.41 13.69q-5.45 5.66-13.12 8.7-7.66 3.03-17.01 3.03-9.43 0-17.14-3.03-7.71-3.04-13.16-8.7-5.45-5.65-8.45-13.69-2.99-8.04-2.99-18.04 0-9.92 2.99-17.96 3-8.03 8.45-13.61t13.16-8.61 17.14-3.03m0 71.09q10.49 0 15.54-7.05 5.04-7.05 5.04-20.67 0-13.61-5.04-20.74-5.05-7.14-15.54-7.14-10.66 0-15.79 7.18-5.12 7.17-5.12 20.7t5.12 20.63q5.13 7.09 15.79 7.09m87.74-29.77q3.77 0 6.56-1.02 2.79-1.03 4.63-2.83 1.85-1.8 2.79-4.35.94-2.54.94-5.57 0-6.23-3.73-9.88t-11.19-3.65-11.2 3.65q-3.73 3.65-3.73 9.88 0 2.95.95 5.49.94 2.54 2.78 4.39 1.85 1.84 4.68 2.87 2.83 1.02 6.52 1.02m22.88 47.89q0-2.46-1.48-4.02-1.48-1.55-4.02-2.42-2.54-.86-5.94-1.27-3.41-.41-7.22-.61-3.81-.21-7.87-.37t-7.91-.66q-3.37 1.89-5.46 4.43t-2.09 5.91q0 2.21 1.11 4.14 1.11 1.92 3.52 3.32 2.42 1.39 6.28 2.17 3.85.78 9.43.78 5.66 0 9.76-.86t6.76-2.38q2.67-1.52 3.9-3.61t1.23-4.55m-4.02-85.03h24.19v7.54q0 3.61-4.35 4.43l-7.54 1.39q1.72 4.35 1.72 9.52 0 6.23-2.5 11.27t-6.93 8.57-10.46 5.45q-6.02 1.93-12.99 1.93-2.46 0-4.76-.25-2.29-.24-4.51-.65-3.93 2.38-3.93 5.33 0 2.54 2.33 3.73 2.34 1.19 6.19 1.68 3.86.49 8.78.61 4.92.13 10.08.54 5.17.41 10.09 1.43 4.92 1.03 8.77 3.24 3.86 2.22 6.19 6.03 2.34 3.81 2.34 9.8 0 5.57-2.75 10.82-2.74 5.25-7.95 9.35t-12.79 6.6q-7.59 2.5-17.26 2.5-9.51 0-16.57-1.84-7.05-1.85-11.72-4.92-4.68-3.08-6.97-7.1-2.3-4.01-2.3-8.36 0-5.9 3.57-9.88t9.8-6.36q-3.36-1.72-5.33-4.59t-1.97-7.54q0-1.89.7-3.9.69-2.01 2.05-3.97 1.35-1.97 3.4-3.73 2.05-1.77 4.84-3.16-6.4-3.45-10.05-9.19t-3.65-13.44q0-6.24 2.5-11.28 2.51-5.04 6.97-8.61 4.47-3.57 10.58-5.45 6.11-1.89 13.33-1.89 5.41 0 10.17 1.11 4.75 1.11 8.69 3.24m74.21-4.18q9.35 0 17.01 3.03 7.67 3.03 13.12 8.61 5.46 5.58 8.41 13.61 2.95 8.04 2.95 17.96 0 10-2.95 18.04t-8.41 13.69q-5.45 5.66-13.12 8.7-7.66 3.03-17.01 3.03-9.43 0-17.14-3.03-7.71-3.04-13.16-8.7-5.45-5.65-8.45-13.69-2.99-8.04-2.99-18.04 0-9.92 2.99-17.96 3-8.03 8.45-13.61t13.16-8.61 17.14-3.03m0 71.09q10.49 0 15.54-7.05 5.04-7.05 5.04-20.67 0-13.61-5.04-20.74-5.05-7.14-15.54-7.14-10.66 0-15.79 7.18-5.12 7.17-5.12 20.7t5.12 20.63q5.13 7.09 15.79 7.09"/></svg>