<svg xmlns="http://www.w3.org/2000/svg" width="600" height="400" viewBox="0 0 600 400"><rect width="100%" height="100%" fill="#ff0000"/><path fill="#fffC" d="M144.68 221.6q-6.16 0-11.04-2t-7.8-5.92-3.08-9.44h14.56q.32 3.12 2.16 4.76t4.8 1.64q3.04 0 4.8-1.4t1.76-3.88q0-2.08-1.4-3.44t-3.44-2.24-5.8-2q-5.44-1.68-8.88-3.36t-5.92-4.96-2.48-8.56q0-7.84 5.68-12.28t14.8-4.44q9.28 0 14.96 4.44t6.08 12.36h-14.8q-.16-2.72-2-4.28t-4.72-1.56q-2.48 0-4 1.32t-1.52 3.8q0 2.72 2.56 4.24t8 3.28q5.44 1.84 8.84 3.52t5.88 4.88 2.48 8.24q0 4.8-2.44 8.72t-7.08 6.24-10.96 2.32m70.96-23.6q0 1.92-.24 4h-30.96q.32 4.16 2.68 6.36t5.8 2.2q5.12 0 7.12-4.32h14.56q-1.12 4.4-4.04 7.92t-7.32 5.52-9.84 2q-6.56 0-11.68-2.8t-8-8-2.88-12.16 2.84-12.16 7.96-8 11.76-2.8q6.48 0 11.52 2.72t7.88 7.76 2.84 11.76m-31.12-3.6h17.12q0-3.52-2.4-5.6t-6-2.08q-3.44 0-5.8 2t-2.92 5.68m95.28-18.48q8.32 0 13.24 5.04t4.92 14v26.08h-13.6V196.8q0-4.32-2.28-6.68t-6.28-2.36-6.28 2.36-2.28 6.68v24.24h-13.6V196.8q0-4.32-2.28-6.68t-6.28-2.36-6.28 2.36-2.28 6.68v24.24h-13.68V176.4h13.68v5.6q2.08-2.8 5.44-4.44t7.6-1.64q5.04 0 9 2.16t6.2 6.16q2.32-3.68 6.32-6t8.72-2.32m51.6-4.16q-3.6 0-5.88-2.12t-2.28-5.24q0-3.2 2.28-5.32t5.88-2.12q3.52 0 5.8 2.12t2.28 5.32q0 3.12-2.28 5.24t-5.8 2.12m-6.88 4.64h13.68v44.64h-13.68zm80.56-.48q8.32 0 13.24 5.04t4.92 14v26.08h-13.6V196.8q0-4.32-2.28-6.68t-6.28-2.36-6.28 2.36-2.28 6.68v24.24h-13.6V196.8q0-4.32-2.28-6.68t-6.28-2.36-6.28 2.36-2.28 6.68v24.24h-13.68V176.4h13.68v5.6q2.08-2.8 5.44-4.44t7.6-1.64q5.04 0 9 2.16t6.2 6.16q2.32-3.68 6.32-6t8.72-2.32m44.72-.16q4.72 0 8.28 1.92t5.48 5.04v-6.32h13.68v44.56q0 6.16-2.44 11.16t-7.44 7.96-12.44 2.96q-9.92 0-16.08-4.68t-7.04-12.68h13.52q.64 2.56 3.04 4.04t5.92 1.48q4.24 0 6.76-2.44t2.52-7.8v-6.32q-2 3.12-5.52 5.08t-8.24 1.96q-5.52 0-10-2.84t-7.08-8.08-2.6-12.12 2.6-12.08 7.08-8 10-2.8m13.76 22.96q0-5.12-2.84-8.08t-6.92-2.96-6.92 2.92-2.84 8.04 2.84 8.12 6.92 3 6.92-2.96 2.84-8.08"/></svg>